<?xml version="1.0" encoding="utf-8"?>
<!-- Generator: Adobe Illustrator 16.0.0, SVG Export Plug-In . SVG Version: 6.00 Build 0)  -->
<!DOCTYPE svg PUBLIC "-//W3C//DTD SVG 1.1//EN" "http://www.w3.org/Graphics/SVG/1.1/DTD/svg11.dtd">
<svg version="1.1" id="Layer_1" xmlns="http://www.w3.org/2000/svg" xmlns:xlink="http://www.w3.org/1999/xlink" x="0px" y="0px"
	 width="69.167px" height="65px" viewBox="2.927 0 69.167 65" enable-background="new 2.927 0 69.167 65" xml:space="preserve">
<g>
	<g>
		<g>
			<path fill="#FF9B59" d="M37.358,0c-17.921,0-32.5,14.579-32.5,32.5S19.437,65,37.358,65c17.92,0,32.5-14.579,32.5-32.5
				S55.278,0,37.358,0z M38.505,62.874l0.811-1.401l-1.816-1.048l-0.141,0.243l-0.141-0.243l-1.816,1.048l0.81,1.401
				C19.976,62.268,6.955,48.879,6.955,32.5c0-5.123,1.279-9.951,3.526-14.19l0.808,1.397l1.815-0.821l-0.14-0.016h0.28v-2.097
				h-1.608c5.39-9.435,14.901-14.222,25.722-14.222c10.818,0,20.332,4.787,25.721,14.222h-1.607v2.097h0.281l-0.141,0.016
				l1.814,0.935l0.809-1.455c2.248,4.238,3.525,9.04,3.525,14.162C67.76,48.907,54.739,62.268,38.505,62.874z"/>
			
				<rect x="26.444" y="46.613" transform="matrix(0.4999 0.8661 -0.8661 0.4999 55.6008 -0.9644)" fill="#FF9B59" width="4.384" height="2.097"/>
			
				<rect x="30.828" y="54.207" transform="matrix(0.4999 0.8661 -0.8661 0.4999 64.3704 -0.9638)" fill="#FF9B59" width="4.384" height="2.096"/>
			
				<rect x="17.676" y="31.425" transform="matrix(0.5 0.866 -0.866 0.5 38.0573 -0.9686)" fill="#FF9B59" width="4.383" height="2.097"/>
			
				<rect x="13.292" y="23.832" transform="matrix(0.4999 0.8661 -0.8661 0.4999 29.2911 -0.9678)" fill="#FF9B59" width="4.383" height="2.096"/>
			<rect x="26.874" y="16.774" fill="#FF9B59" width="4.193" height="2.097"/>
			<rect x="17.438" y="16.774" fill="#FF9B59" width="4.194" height="2.097"/>
			<rect x="43.647" y="16.774" fill="#FF9B59" width="4.195" height="2.097"/>
			<rect x="53.085" y="16.774" fill="#FF9B59" width="4.193" height="2.097"/>
			
				<rect x="40.646" y="53.058" transform="matrix(0.8662 0.4997 -0.4997 0.8662 33.1868 -13.442)" fill="#FF9B59" width="2.097" height="4.383"/>
			<polygon fill="#FF9B59" points="50.079,38.635 48.78,37.883 47.729,39.696 49.03,40.45 48.46,41.439 50.274,42.488 
				52.468,38.691 50.651,37.644 			"/>
			
				<rect x="45.029" y="45.466" transform="matrix(0.8658 0.5004 -0.5004 0.8658 30.035 -16.6619)" fill="#FF9B59" width="2.096" height="4.383"/>
			
				<rect x="53.796" y="30.279" transform="matrix(0.866 0.5 -0.5 0.866 23.5858 -23.0737)" fill="#FF9B59" width="2.097" height="4.383"/>
			
				<rect x="58.181" y="22.685" transform="matrix(0.8661 0.4999 -0.4999 0.8661 20.3658 -26.276)" fill="#FF9B59" width="2.097" height="4.383"/>
			<rect x="36.309" y="52.42" fill="#FF9B59" width="2.098" height="4.193"/>
			
				<rect x="16.25" y="20.456" transform="matrix(-0.8659 -0.5002 0.5002 -0.8659 23.4036 49.283)" fill="#FF9B59" width="4.115" height="2.097"/>
			<path fill="#FF9B59" d="M47.725,39.693l1.051-1.815l-1.143-0.66l2.535-10.9l1.42-0.82l-1.049-1.816l-1.424,0.822l-10.709-3.249
				v-1.335v0v-1.048h1.047v-2.097H35.26v2.097h1.049v1.048v0v1.335l-10.711,3.248l-1.423-0.822l-1.049,1.816l1.42,0.82l2.536,10.9
				l-1.143,0.662l1.051,1.814l1.141-0.661l8.178,7.655v1.538h2.098v-1.537l8.176-7.654L47.725,39.693z M36.309,43.815l-7.078-6.627
				l-2.193-9.433l9.271,5.355V43.815z M28.086,25.94l9.272-2.812l9.271,2.812l-9.271,5.354L28.086,25.94z M38.407,43.816V33.111
				l9.271-5.354l-2.193,9.434L38.407,43.816z"/>
			<polygon fill="#FF9B59" points="26.986,39.695 25.935,37.881 24.636,38.633 24.065,37.644 22.25,38.691 24.442,42.488 
				26.258,41.439 25.684,40.449 			"/>
			
				<rect x="54.351" y="20.451" transform="matrix(0.866 -0.5001 0.5001 0.866 -3.1909 31.093)" fill="#FF9B59" width="4.116" height="2.097"/>
		</g>
	</g>
</g>
</svg>
