<svg xmlns="http://www.w3.org/2000/svg" width="56" height="45" viewBox="0 0 56 45">
  <defs>
    <style>
      .cls-1 {
        fill: #ff9b59;
        fill-rule: evenodd;
      }
    </style>
  </defs>
  <path id="Forma_1" data-name="Forma 1" class="cls-1" d="M710.992,3442H655.008v-45h55.984v45Zm-54.307-1.72h52.63v-41.56h-52.63v41.56Zm16.9-7.57H661.46v-12.4h12.128v12.4ZM663.137,3431h8.774v-8.97h-8.774V3431Zm4.387-14.07a6.2,6.2,0,1,1,6.064-6.2A6.139,6.139,0,0,1,667.524,3416.93Zm0-10.69a4.486,4.486,0,1,0,4.387,4.49A4.448,4.448,0,0,0,667.524,3406.24Zm16.575-1.71h20.123v1.71H684.1v-1.71Zm0,8.57h20.123v1.72H684.1v-1.72Zm0,8.57h20.123v1.72H684.1v-1.72Zm0,8.57h20.123v1.72H684.1v-1.72Z" transform="translate(-655 -3397)"/>
</svg>
