<?xml version="1.0" encoding="utf-8"?>
<!-- Generator: Adobe Illustrator 16.0.0, SVG Export Plug-In . SVG Version: 6.00 Build 0)  -->
<!DOCTYPE svg PUBLIC "-//W3C//DTD SVG 1.1//EN" "http://www.w3.org/Graphics/SVG/1.1/DTD/svg11.dtd">
<svg version="1.1" id="Layer_1" xmlns="http://www.w3.org/2000/svg" xmlns:xlink="http://www.w3.org/1999/xlink" x="0px" y="0px"
	 width="83.326px" height="65px" viewBox="0 0 83.326 65" enable-background="new 0 0 83.326 65" xml:space="preserve">
<path fill="#FF9B59" d="M55.841,13.929h16.573c0.619,2.389,2.777,4.167,5.356,4.167c3.064,0,5.556-2.491,5.556-5.555
	c0-3.063-2.491-5.555-5.556-5.555c-2.579,0-4.737,1.777-5.356,4.166H47.22V6.986H36.107v4.166H10.913
	c-0.62-2.389-2.777-4.166-5.357-4.166C2.491,6.986,0,9.477,0,12.541c0,3.064,2.491,5.555,5.555,5.555
	c2.58,0,4.737-1.778,5.357-4.167h16.573C14.1,19.38,4.747,32.279,4.199,47.26H0v11.109h11.11V47.26H7.006
	c0.655-16.505,12.825-30.271,29.101-32.88v3.716H47.22V14.38c16.274,2.609,28.445,16.374,29.101,32.88h-4.104v11.109h11.109V47.26
	h-4.199C78.579,32.279,69.227,19.38,55.841,13.929z M8.333,55.592H2.777v-5.556h5.555V55.592z M77.771,9.763
	c1.532,0,2.779,1.246,2.779,2.777s-1.247,2.778-2.779,2.778c-1.531,0-2.776-1.246-2.776-2.778S76.239,9.763,77.771,9.763z
	 M5.555,15.318c-1.532,0-2.778-1.246-2.778-2.778s1.246-2.777,2.778-2.777s2.777,1.246,2.777,2.777S7.087,15.318,5.555,15.318z
	 M44.44,15.318h-5.554V11.23V9.763h5.554v1.467V15.318z M80.55,55.592h-5.556v-5.556h5.556V55.592z"/>
</svg>
