<?xml version="1.0" encoding="utf-8"?>
<!-- Generator: Adobe Illustrator 16.0.0, SVG Export Plug-In . SVG Version: 6.00 Build 0)  -->
<!DOCTYPE svg PUBLIC "-//W3C//DTD SVG 1.1//EN" "http://www.w3.org/Graphics/SVG/1.1/DTD/svg11.dtd">
<svg version="1.1" id="Layer_1" xmlns="http://www.w3.org/2000/svg" xmlns:xlink="http://www.w3.org/1999/xlink" x="0px" y="0px"
	 width="107.833px" height="65px" viewBox="-16.739 0 107.833 65" enable-background="new -16.739 0 107.833 65"
	 xml:space="preserve">
<path fill-rule="evenodd" clip-rule="evenodd" fill="#FF9B59" d="M37.354,64.856c-7.284,0-14.569,0.001-21.854,0
	c-2.724,0-3.945-1.22-3.946-3.941c-0.002-7.086-0.002-14.174,0-21.26c0-2.663,1.236-3.901,3.886-3.905
	c1.655-0.001,3.312-0.026,4.967,0.013c0.638,0.015,0.869-0.165,0.854-0.829c-0.041-1.787-0.025-3.577-0.011-5.366
	c0.015-2.139,1.323-3.438,3.494-3.439c8.444-0.008,16.889-0.008,25.334,0c2.159,0.003,3.431,1.272,3.474,3.47
	c0.032,1.753,0.034,3.511-0.006,5.264c-0.018,0.695,0.207,0.918,0.899,0.901c1.723-0.042,3.445-0.023,5.168-0.011
	c2.268,0.018,3.568,1.323,3.571,3.581c0.003,7.318,0.003,14.637,0,21.956c-0.003,2.263-1.301,3.563-3.58,3.563
	C52.188,64.86,44.772,64.856,37.354,64.856z M37.534,29.342c-4.008,0-8.018,0.021-12.025-0.018
	c-0.791-0.007-0.999,0.229-0.991,1.002c0.047,4.736,0.063,9.473,0.04,14.209c-0.005,0.778,0.252,0.918,0.963,0.917
	c7.95-0.025,15.901-0.022,23.852-0.001c0.67,0.001,0.904-0.145,0.899-0.865c-0.028-4.771-0.031-9.541,0.017-14.31
	c0.009-0.85-0.31-0.953-1.028-0.948C45.349,29.358,41.444,29.342,37.534,29.342z M37.442,55.14c3.97,0,7.942-0.015,11.912,0.013
	c0.656,0.005,0.946-0.121,0.919-0.859c-0.057-1.554-0.055-3.111-0.002-4.666c0.025-0.721-0.238-0.874-0.906-0.868
	c-3.608,0.029-7.213,0.013-10.82,0.013c-4.303,0-8.605,0.028-12.906-0.022c-0.903-0.011-1.125,0.262-1.081,1.117
	c0.068,1.386,0.065,2.78,0.001,4.167c-0.04,0.835,0.149,1.143,1.07,1.129C29.565,55.106,33.505,55.14,37.442,55.14z M21.231,50.421
	c0-3.507-0.012-7.013,0.011-10.52c0.003-0.607-0.111-0.886-0.805-0.865c-1.619,0.05-3.241,0.035-4.862,0.005
	c-0.563-0.01-0.734,0.177-0.733,0.735c0.016,7.014,0.018,14.026-0.002,21.041c-0.003,0.639,0.236,0.771,0.811,0.759
	c1.554-0.029,3.111-0.052,4.664,0.007c0.753,0.029,0.942-0.203,0.934-0.94C21.209,57.234,21.231,53.829,21.231,50.421z
	 M59.978,50.298c0-3.412-0.029-6.824,0.021-10.234c0.011-0.848-0.252-1.063-1.061-1.028c-1.453,0.061-2.915,0.063-4.37-0.003
	c-0.809-0.036-0.986,0.242-0.983,1.007c0.034,4.867,0.017,9.736,0.017,14.604c0,2.021,0.031,4.041-0.015,6.06
	c-0.018,0.716,0.225,0.898,0.906,0.878c1.521-0.045,3.047-0.056,4.567,0.006c0.764,0.029,0.941-0.226,0.936-0.955
	C59.959,57.188,59.978,53.742,59.978,50.298z M37.438,61.567c3.543,0,7.087,0,10.63,0c2.203,0,2.165,0,2.208-2.235
	c0.015-0.805-0.237-0.977-0.999-0.974c-7.483,0.027-14.968,0.016-22.45,0.016c-2.283,0-2.247,0-2.271,2.283
	c-0.008,0.768,0.243,0.932,0.962,0.925C29.491,61.55,33.465,61.567,37.438,61.567z"/>
<path fill-rule="evenodd" clip-rule="evenodd" fill="#FF9B59" d="M5.117,0.308c4.205,0,8.409-0.002,12.614,0
	c2.24,0.002,3.52,1.256,3.523,3.493c0.012,5.198,0.011,10.398,0,15.596c-0.004,2.205-1.308,3.524-3.519,3.527
	c-8.376,0.014-16.753,0.012-25.13,0.001c-2.272-0.002-3.58-1.324-3.582-3.574c-0.004-5.165-0.004-10.33,0-15.496
	c0.002-2.283,1.276-3.545,3.577-3.547C-3.227,0.306,0.945,0.308,5.117,0.308z M5.099,19.628c4.009,0,8.018-0.02,12.026,0.018
	c0.754,0.007,0.94-0.213,0.936-0.947c-0.033-4.771-0.031-9.542-0.001-14.313c0.005-0.706-0.209-0.885-0.896-0.882
	c-8.019,0.022-16.036,0.022-24.053,0c-0.697-0.002-0.896,0.199-0.892,0.893c0.028,4.771,0.032,9.542-0.002,14.313
	c-0.005,0.76,0.226,0.942,0.958,0.935C-2.852,19.611,1.123,19.628,5.099,19.628z"/>
<path fill-rule="evenodd" clip-rule="evenodd" fill="#FF9B59" d="M74.402,19.698c-2.484,0.001-4.97,0.013-7.451-0.003
	c-2.52-0.014-3.434-1.257-2.734-3.649c1.19-4.061,2.379-8.12,3.554-12.184c0.674-2.317,2.307-3.552,4.749-3.554
	c1.393-0.001,2.783-0.004,4.173,0.001c2.034,0.008,3.782,1.222,4.354,3.139c1.289,4.307,2.548,8.623,3.775,12.947
	c0.575,2.019-0.379,3.245-2.571,3.289C79.635,19.737,77.016,19.696,74.402,19.698z M81.344,16.386
	c-0.008-0.136,0.003-0.236-0.022-0.326c-1.109-3.843-2.215-7.686-3.339-11.524c-0.2-0.688-0.714-1.012-1.421-1.016
	c-1.358-0.007-2.714-0.002-4.072-0.002c-0.837,0-1.349,0.388-1.578,1.216C70.479,6.296,70,7.843,69.551,9.399
	c-0.674,2.307-1.339,4.615-2.023,6.987C72.202,16.386,76.763,16.386,81.344,16.386z"/>
<path fill-rule="evenodd" clip-rule="evenodd" fill="#FF9B59" d="M76.102,42.256c0,6.096,0.018,12.192-0.021,18.289
	c-0.002,0.82,0.207,1.09,1.041,1.041c1.187-0.072,2.385-0.032,3.576-0.014c1.092,0.018,1.8,0.632,1.84,1.546
	c0.04,0.987-0.645,1.719-1.765,1.727c-4.176,0.025-8.35,0.022-12.525,0.001c-1.129-0.007-1.87-0.719-1.854-1.653
	c0.018-0.936,0.778-1.602,1.895-1.62c1.092-0.019,2.188-0.004,3.279-0.005c1.261,0,1.261-0.003,1.261-1.308
	c0-11.1,0-22.198,0-33.298c0-1.094,0.034-2.188-0.011-3.279c-0.029-0.663,0.218-0.838,0.856-0.845
	c2.428-0.025,2.428-0.047,2.428,2.321C76.102,30.857,76.102,36.557,76.102,42.256z"/>
<path fill-rule="evenodd" clip-rule="evenodd" fill="#FF9B59" d="M-1.3,38.982c2.915,0,5.83,0.019,8.745-0.013
	c0.692-0.007,0.997,0.116,0.993,0.913c-0.014,2.372,0.022,2.372-2.379,2.372c-1.623,0-3.247,0.022-4.869-0.013
	c-0.61-0.013-0.868,0.112-0.864,0.807c0.026,5.896,0.023,11.792,0.002,17.688c-0.002,0.639,0.168,0.85,0.83,0.846
	c1.687-0.008,2.415,0.547,2.377,1.683c-0.035,1.1-0.767,1.589-2.399,1.592c-1.754,0.004-3.509,0.01-5.264-0.001
	c-1.26-0.007-2.062-0.679-2.034-1.674c0.026-0.966,0.809-1.686,2-1.588c1.076,0.087,1.23-0.335,1.224-1.283
	c-0.042-5.663-0.042-11.328,0.001-16.993c0.007-0.896-0.252-1.11-1.111-1.083c-2.052,0.063-4.107-0.003-6.16,0.033
	c-0.615,0.011-0.776-0.177-0.784-0.784c-0.034-2.501-0.055-2.501,2.438-2.501C-6.135,38.982-3.718,38.982-1.3,38.982z"/>
<path fill-rule="evenodd" clip-rule="evenodd" fill="#FF9B59" d="M69.687,26.241c0,0.892-0.013,1.785,0.01,2.676
	c0.011,0.471-0.167,0.679-0.64,0.625c-0.031-0.003-0.066-0.001-0.097,0c-2.577,0.109-2.577,0.109-2.577-2.44
	c0-1.156,0.021-2.313-0.009-3.469c-0.014-0.518,0.172-0.665,0.683-0.688c2.633-0.126,2.633-0.141,2.633,2.503
	C69.69,25.713,69.69,25.977,69.687,26.241z"/>
<path fill-rule="evenodd" clip-rule="evenodd" fill="#FF9B59" d="M5.028,16.426c-2.916,0-5.83-0.018-8.745,0.013
	c-0.639,0.007-0.865-0.16-0.857-0.827c0.033-2.682,0.031-5.366,0.002-8.048c-0.007-0.657,0.22-0.853,0.863-0.85
	C2.219,6.732,8.148,6.732,14.077,6.713c0.613-0.002,0.792,0.194,0.787,0.796c-0.027,2.683-0.036,5.366,0.003,8.049
	c0.011,0.707-0.21,0.891-0.896,0.883C10.99,16.406,8.009,16.426,5.028,16.426z M5.129,13.218c1.39,0,2.78,0,4.168,0
	c2.293,0,2.258,0,2.275-2.284c0.005-0.765-0.249-0.938-0.967-0.931c-3.175,0.036-6.352,0.015-9.528,0.015
	c-2.463,0-2.444,0-2.358,2.487c0.019,0.572,0.207,0.73,0.753,0.723C1.358,13.202,3.244,13.218,5.129,13.218z"/>
</svg>
