<svg xmlns="http://www.w3.org/2000/svg" width="216" height="216" viewBox="0 0 216 216">
  <defs>
    <style>
      .cls-1 {
        fill: #fff;
        fill-rule: evenodd;
        opacity: 0.1;
      }
    </style>
  </defs>
  <path class="cls-1" d="M514,998.2h0V868.6a3.4,3.4,0,0,0-3.6-3.6H301.6a3.4,3.4,0,0,0-3.6,3.6v169.2a3.4,3.4,0,0,0,3.6,3.6h36v-7.2H305.2v-162H506.8V994.6h-36a3.4,3.4,0,0,0-3.6,3.6v36H388v7.2h82.8a3.268,3.268,0,0,0,2.52-1.08l39.6-39.6c0.36-.36.36-0.72,0.72-1.08v-0.36A1.323,1.323,0,0,0,514,998.2Zm-39.6,3.6h27.36l-13.68,13.68-13.68,13.68V1001.8ZM366.04,899.92a3.343,3.343,0,0,0-6.48,0l-10.44,31.32a5.117,5.117,0,0,0-.72,2.16v144a3.4,3.4,0,0,0,3.6,3.6h21.6a3.4,3.4,0,0,0,3.6-3.6v-144a3.86,3.86,0,0,0-.72-2.16ZM355.6,937h3.6v111.6h-3.6V937Zm10.8,0H370v111.6h-3.6V937Zm-3.6-24.48,5.76,17.28H357.04ZM370,1073.8H355.6v-18H370v18Zm54-187.2A32.265,32.265,0,0,0,391.6,919v7.2h7.2V919a25.2,25.2,0,1,1,50.4,0v7.2h7.2V919A32.265,32.265,0,0,0,424,886.6Zm68.4,36v-7.2h-7.2v7.2a25.2,25.2,0,0,1-50.4,0v-7.2h-7.2v7.2A32.4,32.4,0,0,0,492.4,922.6ZM388,983.8v36a3.4,3.4,0,0,0,3.6,3.6h36a3.4,3.4,0,0,0,3.6-3.6v-36a3.4,3.4,0,0,0-3.6-3.6h-36A3.4,3.4,0,0,0,388,983.8Zm7.2,3.6H424v28.8H395.2V987.4Zm43.2,3.6v7.2h7.2a3.4,3.4,0,0,0,3.6-3.6V965.8a3.4,3.4,0,0,0-3.6-3.6H416.8a3.4,3.4,0,0,0-3.6,3.6V973h7.2v-3.6H442V991h-3.6ZM319.6,883h7.2v7.2h-7.2V883Zm14.4,0h7.2v7.2H334V883Zm14.4,0h7.2v7.2h-7.2V883ZM334,897.4h7.2v7.2H334v-7.2Zm-14.4,0h7.2v7.2h-7.2v-7.2Zm0,14.4h7.2V919h-7.2v-7.2Zm0,14.4h7.2v7.2h-7.2v-7.2Zm0,14.4h7.2v7.2h-7.2v-7.2Zm0,14.4h7.2v7.2h-7.2V955Zm0,14.4h7.2v7.2h-7.2v-7.2Zm0,14.4h7.2V991h-7.2v-7.2Zm0,14.4h7.2v7.2h-7.2v-7.2Zm0,14.4h7.2v7.2h-7.2v-7.2Z" transform="translate(-298 -865)"/>
</svg>
