<?xml version="1.0" encoding="utf-8"?>
<!-- Generator: Adobe Illustrator 16.0.0, SVG Export Plug-In . SVG Version: 6.00 Build 0)  -->
<!DOCTYPE svg PUBLIC "-//W3C//DTD SVG 1.1//EN" "http://www.w3.org/Graphics/SVG/1.1/DTD/svg11.dtd">
<svg version="1.1" id="Layer_1" xmlns="http://www.w3.org/2000/svg" xmlns:xlink="http://www.w3.org/1999/xlink" x="0px" y="0px"
	 width="125px" height="127px" viewBox="0 0 125 127" enable-background="new 0 0 125 127" xml:space="preserve">
<g>
	<g>
		<polygon fill="#F6921E" points="50.543,4.639 63.412,63.495 72.578,0 		"/>
		<polygon fill="#F6921E" points="77.217,12.177 90.736,14.497 66.871,59.726 		"/>
		<polygon fill="#F6921E" points="49.818,23.774 59.096,59.726 35.842,31.748 		"/>
	</g>
	<g>
		<path fill="#FFFFFF" d="M43.693,103.263c0,0.027-0.083,0.265-0.248,0.714l-1.707,4.422c-0.064,0.174-0.165,0.361-0.302,0.563
			c-0.166,0.255-0.299,0.383-0.399,0.383c-0.138,0-0.321-0.164-0.551-0.494c-0.183-0.275-0.321-0.527-0.413-0.758l-1.734-4.541
			c-0.019-0.036-0.027-0.073-0.027-0.11c0-0.119,0.078-0.215,0.234-0.289c0.128-0.055,0.257-0.082,0.385-0.082
			c0.147,0,0.316,0.17,0.509,0.509c0.193,0.339,0.326,0.679,0.399,1.02c0.101,0.458,0.271,0.958,0.509,1.499
			c0.257,0.587,0.463,0.881,0.619,0.881c0.083,0,0.211-0.132,0.385-0.397c0.138-0.238,0.238-0.443,0.303-0.617l0.701-2.029
			c0.055-0.146,0.154-0.327,0.296-0.542c0.143-0.216,0.26-0.322,0.351-0.322C43.445,103.07,43.674,103.135,43.693,103.263z"/>
		<path fill="#FFFFFF" d="M45.399,108.727c0,0.138-0.092,0.261-0.275,0.371c-0.147,0.083-0.285,0.125-0.413,0.125
			c-0.239,0-0.358-0.561-0.358-1.68v-3.964c0-0.33,0.156-0.495,0.468-0.495c0.385,0,0.578,0.247,0.578,0.743V108.727z
			 M45.331,101.294c0,0.057-0.092,0.102-0.275,0.139c-0.147,0.037-0.262,0.055-0.344,0.055c-0.192,0-0.289-0.137-0.289-0.413
			c0-0.257,0.073-0.385,0.22-0.385c0.312,0,0.504,0.014,0.578,0.041C45.293,100.758,45.331,100.946,45.331,101.294z"/>
		<path fill="#FFFFFF" d="M50.752,107.433c0,0.541-0.214,0.998-0.643,1.37c-0.428,0.371-0.961,0.557-1.6,0.557
			c-0.547,0-1.023-0.092-1.43-0.275c-0.406-0.184-0.64-0.408-0.704-0.674c-0.009-0.056,0.062-0.131,0.212-0.228
			c0.15-0.096,0.252-0.136,0.307-0.117c0.2,0.11,0.405,0.226,0.614,0.345c0.3,0.155,0.605,0.233,0.915,0.233
			c0.364,0,0.662-0.103,0.894-0.31c0.232-0.206,0.349-0.466,0.349-0.777c0-0.605-0.468-1-1.404-1.184
			c-0.238-0.046-0.477-0.11-0.715-0.192c-0.78-0.266-1.17-0.757-1.17-1.473c0-0.523,0.211-0.95,0.633-1.28
			c0.395-0.312,0.876-0.468,1.445-0.468c0.422,0,0.807,0.081,1.156,0.241c0.348,0.16,0.55,0.365,0.605,0.612
			c0.009,0.036-0.067,0.096-0.228,0.179s-0.268,0.115-0.323,0.096l-0.496-0.233c-0.22-0.109-0.44-0.165-0.661-0.165
			c-0.294,0-0.537,0.083-0.729,0.248s-0.289,0.371-0.289,0.619c0,0.495,0.417,0.839,1.252,1.032
			c0.101,0.027,0.326,0.091,0.674,0.192C50.308,106.048,50.752,106.598,50.752,107.433z"/>
		<path fill="#FFFFFF" d="M56.505,108.781c0,0.119-0.151,0.179-0.455,0.179c-0.064,0-0.197-0.044-0.399-0.13
			c-0.202-0.087-0.344-0.117-0.427-0.09c-0.266,0.101-0.527,0.206-0.784,0.316c-0.349,0.128-0.647,0.192-0.895,0.192
			c-1.34,0-2.009-0.738-2.009-2.216v-3.275c0-0.412,0.064-0.619,0.193-0.619c0.119,0,0.248,0.023,0.385,0.068
			c0.174,0.064,0.261,0.139,0.261,0.221v3.372c0,0.412,0.12,0.789,0.358,1.128c0.303,0.432,0.725,0.647,1.266,0.647
			c0.477,0,0.874-0.182,1.19-0.544c0.316-0.362,0.475-0.8,0.475-1.314v-2.849c0-0.138,0.028-0.293,0.083-0.468
			c0.055-0.174,0.105-0.262,0.151-0.262c0.11,0,0.229,0.028,0.357,0.083c0.165,0.074,0.248,0.17,0.248,0.288V108.781z"/>
		<path fill="#FFFFFF" d="M63.166,108.878c0,0.082-0.051,0.128-0.152,0.137c0.083-0.009-0.014-0.013-0.289-0.013
			c-0.027,0-0.156-0.064-0.386-0.193c-0.229-0.128-0.385-0.179-0.467-0.151c-0.065,0.019-0.395,0.161-0.991,0.427
			c-0.385,0.174-0.752,0.261-1.101,0.261c-0.688,0-1.272-0.227-1.754-0.681s-0.723-1.016-0.723-1.686
			c0-0.743,0.422-1.261,1.266-1.555c0.752-0.267,1.17-0.615,1.252-1.046c0.019-0.083,0.027-0.166,0.027-0.248
			c0-0.403-0.133-0.651-0.399-0.743c-0.009-0.019-0.032-0.027-0.069-0.027c-0.11-0.028-0.218,0.009-0.323,0.109
			c-0.105,0.102-0.181,0.147-0.228,0.139c-0.082-0.02-0.11-0.061-0.082-0.124c0.055-0.156,0.238-0.285,0.55-0.386
			c0.284-0.092,0.597-0.138,0.936-0.138c0.89,0,1.591,0.22,2.105,0.66c0.202,0.119,0.349,0.267,0.44,0.44
			c0.074,0.12,0.188,0.418,0.344,0.896l0.042,0.123V108.878z M62.216,106.635c0-0.477-0.172-0.888-0.516-1.231
			c-0.344-0.345-0.769-0.517-1.273-0.517c-0.56,0-1.063,0.197-1.507,0.593c-0.445,0.394-0.667,0.861-0.667,1.402
			c0,0.505,0.177,0.932,0.531,1.28c0.355,0.349,0.785,0.522,1.292,0.522c0.589,0,1.093-0.199,1.512-0.598
			C62.006,107.688,62.216,107.203,62.216,106.635z"/>
		<path fill="#FFFFFF" d="M65.299,108.892c0,0.102-0.086,0.184-0.256,0.247c-0.168,0.065-0.328,0.097-0.475,0.097
			c-0.248,0-0.371-0.692-0.371-2.077v-6.771c0-0.376,0.188-0.564,0.564-0.564c0.357,0,0.537,0.142,0.537,0.427V108.892z"/>
		<path fill="#FFFFFF" d="M67.418,108.727c0,0.138-0.092,0.261-0.275,0.371c-0.146,0.083-0.285,0.125-0.412,0.125
			c-0.24,0-0.359-0.561-0.359-1.68v-3.964c0-0.33,0.156-0.495,0.469-0.495c0.385,0,0.578,0.247,0.578,0.743V108.727z M67.35,101.294
			c0,0.057-0.092,0.102-0.275,0.139c-0.146,0.037-0.264,0.055-0.344,0.055c-0.193,0-0.289-0.137-0.289-0.413
			c0-0.257,0.072-0.385,0.219-0.385c0.313,0,0.506,0.014,0.578,0.041C67.313,100.758,67.35,100.946,67.35,101.294z"/>
		<path fill="#FFFFFF" d="M72.357,103.126c0.121,0,0.184,0.091,0.193,0.274c-0.01-0.129-0.014,0.009-0.014,0.413
			c0,0.22-0.17,0.564-0.51,1.032l-1.596,2.202c-0.082,0.11-0.182,0.281-0.297,0.516c-0.113,0.234-0.17,0.379-0.17,0.434
			c0,0.083,0.123,0.17,0.371,0.262c0.164,0.064,0.334,0.124,0.51,0.179c0.1,0.046,0.604,0.068,1.512,0.068
			c0.055,0,0.131,0.026,0.229,0.076c0.096,0.051,0.143,0.099,0.143,0.145c0,0.119-0.059,0.192-0.178,0.22
			c-0.082,0.047-0.164,0.088-0.248,0.124c-0.174,0.083-0.363,0.124-0.564,0.124h-2.16c-0.945,0-1.418-0.091-1.418-0.275
			c0-0.201,0.189-0.568,0.564-1.101l1.65-2.326c0.094-0.128,0.215-0.339,0.367-0.634c0.15-0.292,0.227-0.48,0.227-0.563
			c0-0.138-0.203-0.257-0.605-0.357c-0.357-0.092-0.711-0.139-1.061-0.139c-0.559,0-0.84-0.05-0.84-0.151
			c0-0.128,0.045-0.247,0.131-0.357c0.088-0.11,0.195-0.164,0.324-0.164H72.357z"/>
		<path fill="#FFFFFF" d="M76.459,102.96c0.779,0,1.432,0.238,1.955,0.716c0.393,0.367,0.664,0.808,0.813,1.321
			c0.018,0.072-0.053,0.17-0.207,0.289c-0.156,0.119-0.299,0.202-0.428,0.247l-1.486,0.537c-0.486,0.175-0.967,0.413-1.443,0.716
			c-0.561,0.366-0.822,0.651-0.785,0.854c0.055,0.283,0.244,0.529,0.57,0.735c0.326,0.207,0.676,0.31,1.053,0.31
			c0.248,0,0.525-0.111,0.834-0.337c0.307-0.225,0.533-0.351,0.682-0.378l0.576-0.11c0.055-0.018,0.115-0.041,0.18-0.068
			c0.082-0.028,0.135-0.019,0.158,0.027s0.033,0.096,0.033,0.151c0,0.284-0.229,0.578-0.688,0.881
			c-0.514,0.339-1.119,0.509-1.816,0.509c-0.881,0-1.615-0.298-2.201-0.896c-0.588-0.596-0.881-1.348-0.881-2.256
			c0-0.945,0.283-1.723,0.854-2.332C74.799,103.266,75.543,102.96,76.459,102.96z M76.486,103.635c-0.586,0-1.068,0.172-1.445,0.516
			c-0.375,0.345-0.564,0.773-0.564,1.287c0,0.274,0.076,0.555,0.229,0.839c0.15,0.284,0.322,0.427,0.516,0.427
			c0.064,0,0.123-0.013,0.18-0.042l0.592-0.317c0.219-0.12,0.604-0.4,1.154-0.843c0.615-0.498,0.908-0.803,0.881-0.913
			c-0.072-0.276-0.252-0.504-0.535-0.684C77.207,103.725,76.873,103.635,76.486,103.635z"/>
		<path fill="#FFFFFF" d="M83.34,103.331c0,0.065-0.043,0.173-0.131,0.324s-0.164,0.245-0.227,0.282
			c-0.074,0-0.193,0.019-0.357,0.055c-0.404,0.138-0.725,0.316-0.965,0.536c-0.293,0.34-0.439,0.726-0.439,1.156v3.069
			c0,0.146-0.047,0.264-0.139,0.351c-0.092,0.088-0.188,0.131-0.287,0.131c-0.441,0-0.662-0.221-0.662-0.66v-5.051
			c0-0.009,0.01-0.015,0.027-0.015c0.02,0,0.068,0.015,0.152,0.042c0.082,0.027,0.133,0.042,0.15,0.042
			c0.02,0,0.027-0.006,0.027-0.015c0.268-0.412,0.648-0.619,1.143-0.619c0.102,0,0.26,0.021,0.477,0.063
			c0.215,0.041,0.336,0.062,0.363,0.062c0.102-0.009,0.275-0.009,0.523,0C83.207,103.103,83.322,103.186,83.34,103.331z"/>
		<path fill="#FFFFFF" d="M88.268,107.433c0,0.541-0.215,0.998-0.645,1.37c-0.428,0.371-0.961,0.557-1.6,0.557
			c-0.547,0-1.023-0.092-1.43-0.275c-0.404-0.184-0.641-0.408-0.703-0.674c-0.01-0.056,0.061-0.131,0.211-0.228
			c0.15-0.096,0.252-0.136,0.307-0.117c0.201,0.11,0.406,0.226,0.615,0.345c0.301,0.155,0.604,0.233,0.914,0.233
			c0.363,0,0.662-0.103,0.895-0.31c0.232-0.206,0.348-0.466,0.348-0.777c0-0.605-0.469-1-1.404-1.184
			c-0.238-0.046-0.477-0.11-0.715-0.192c-0.779-0.266-1.17-0.757-1.17-1.473c0-0.523,0.211-0.95,0.633-1.28
			c0.395-0.312,0.875-0.468,1.445-0.468c0.422,0,0.807,0.081,1.156,0.241c0.348,0.16,0.551,0.365,0.604,0.612
			c0.01,0.036-0.064,0.096-0.227,0.179c-0.16,0.083-0.268,0.115-0.322,0.096l-0.496-0.233c-0.219-0.109-0.439-0.165-0.66-0.165
			c-0.293,0-0.537,0.083-0.729,0.248c-0.193,0.165-0.291,0.371-0.291,0.619c0,0.495,0.418,0.839,1.254,1.032
			c0.1,0.027,0.326,0.091,0.674,0.192C87.82,106.048,88.268,106.598,88.268,107.433z"/>
	</g>
	<g>
		<path fill="#FFFFFF" d="M25.531,94.974c0,0.239-0.095,0.393-0.283,0.462s-0.454,0.086-0.796,0.051
			c-0.48-0.033-0.703-0.051-0.668-0.051c-0.205,0-0.634-0.171-1.284-0.514c-0.651-0.343-1.148-0.515-1.49-0.515
			c-0.343,0-0.668,0.104-0.976,0.309c-0.411,0.24-0.789,0.411-1.131,0.514c-0.651,0.515-1.781,0.925-3.39,1.233
			c0.308,0,0.154,0.052-0.462,0.154c-0.617,0.102-1.216,0.153-1.798,0.153c-3.22,0-5.856-1.078-7.912-3.236
			c-2.055-2.157-3.083-5.051-3.083-8.682c0-2.98,0.856-5.616,2.569-7.911c2.02-2.672,4.727-4.008,8.117-4.008
			c1.472,0,3.818,0.754,7.038,2.26c0.308,0.138,0.633-0.359,0.976-1.489c0.206-0.753,0.428-1.507,0.668-2.26
			c0.274-0.548,0.445-2.432,0.514-5.652c0.034-2.773,0.342-4.16,0.925-4.16c0.514,0,1.053,0.12,1.618,0.359
			c0.565,0.24,0.848,0.548,0.848,0.924V94.974z M21.986,84.646c0-2.568-0.771-4.751-2.313-6.55c-1.541-1.798-3.425-2.68-5.651-2.646
			c-2.124,0.034-3.922,0.702-5.394,2.003c-1.85,1.679-2.774,4.162-2.774,7.449c0,2.706,0.745,4.941,2.235,6.705
			c1.49,1.765,3.434,2.646,5.831,2.646c1.952,0,3.699-0.736,5.24-2.21C21.044,90.265,21.986,87.798,21.986,84.646z"/>
		<path fill="#FFFFFF" d="M58.718,74.27c0,0.342-0.36,1.473-1.079,3.391l-5.805,15.617c-0.172,0.446-0.514,1.063-1.028,1.85
			c-0.616,0.891-1.045,1.336-1.284,1.336c-0.548,0-1.165-0.771-1.85-2.312c-0.548-1.268-1.01-2.705-1.387-4.315
			c-0.309-1.336-0.771-2.654-1.387-3.956c-0.719-1.541-1.336-2.312-1.85-2.312c-0.103,0-0.274,0.137-0.514,0.411
			c-0.24,0.273-0.394,0.428-0.462,0.462c-0.583,0.582-1.097,1.61-1.542,3.083l-2.003,6.473c-0.103,0.343-0.394,0.839-0.873,1.489
			c-0.48,0.651-0.822,0.977-1.028,0.977c-0.377,0-0.873-0.498-1.49-1.493c-0.514-0.824-0.908-1.614-1.181-2.368l-5.343-15.498
			c-0.411-1.202-0.617-2.095-0.617-2.679c0-0.479,0.137-0.721,0.411-0.721c0.376,0,0.89,0.155,1.541,0.466
			c0.65,0.31,1.028,0.639,1.13,0.983l2.158,6.882c0.309,1,0.822,2.241,1.542,3.725c0.787,1.587,1.301,2.381,1.541,2.381
			c0.479,0,1.044-0.551,1.695-1.65c0.548-0.928,0.941-1.806,1.182-2.63l1.952-6.756c0.137-0.446,0.411-0.979,0.822-1.599
			c0.411-0.618,0.771-0.928,1.079-0.928c0.993,0,1.883,1.438,2.671,4.315l1.387,5.034c0.239,0.822,0.617,1.695,1.13,2.619
			c0.582,1.063,1.044,1.594,1.387,1.594c0.411,0,0.958-0.616,1.645-1.85c0.547-0.993,0.976-1.969,1.284-2.929l2.466-7.654
			c0.103-0.274,0.326-0.677,0.668-1.208c0.342-0.53,0.599-0.796,0.771-0.796c0.273,0,0.719,0.069,1.335,0.205
			C58.41,74.047,58.718,74.167,58.718,74.27z"/>
		<path fill="#FFFFFF" d="M79.113,94.665c0,0.445-0.564,0.668-1.695,0.668c-0.24,0-0.736-0.163-1.49-0.488s-1.285-0.438-1.592-0.334
			c-0.994,0.377-1.971,0.771-2.93,1.182c-1.301,0.479-2.414,0.719-3.338,0.719c-5.002,0-7.501-2.757-7.501-8.271V75.913
			c0-1.541,0.239-2.312,0.72-2.312c0.444,0,0.924,0.086,1.438,0.257c0.65,0.24,0.977,0.514,0.977,0.822v12.586
			c0,1.542,0.445,2.946,1.336,4.213c1.131,1.61,2.705,2.415,4.727,2.415c1.779,0,3.262-0.676,4.443-2.03
			c1.182-1.353,1.773-2.986,1.773-4.906V76.324c0-0.514,0.102-1.096,0.307-1.746c0.207-0.65,0.395-0.977,0.566-0.977
			c0.41,0,0.855,0.103,1.334,0.308c0.617,0.275,0.926,0.635,0.926,1.08V94.665z"/>
		<path fill="#FFFFFF" d="M82.041,74.115c0-0.136,0.514-0.411,1.541-0.822s1.592-0.735,1.695-0.976
			c0.033-1.062,0.154-2.604,0.359-4.624c0.068-0.342,0.463-0.702,1.182-1.079c0.719-0.376,1.215-0.565,1.49-0.565
			c0.205,0,0.428,0.703,0.668,2.107c0.137,0.891,0.273,1.798,0.412,2.722c0.031,0.173,0.256,0.42,0.666,0.746
			c0.412,0.325,0.701,0.693,0.875,1.104c0.102,0.206,0.514,0.438,1.232,0.693c0.719,0.258,1.078,0.488,1.078,0.694
			c0,0.651-0.48,1.713-1.438,3.186c-0.447,0.343-0.873,0.685-1.285,1.027c-0.754,0.582-1.129,1.078-1.129,1.489v5.703
			c0,4.041,0.34,6.302,1.025,6.781c0.207,0.138,0.453,0.702,0.746,1.695c0.291,0.993,0.436,1.627,0.436,1.9
			c0,0.65-0.514,0.977-1.541,0.977c-1.199,0-2.244-0.301-3.133-0.899c-0.891-0.599-1.336-1.446-1.336-2.543V79.355
			c0-0.479-0.395-0.941-1.182-1.388c-0.926-0.582-1.439-0.958-1.541-1.13C82.314,75.913,82.041,75.006,82.041,74.115z"/>
		<path fill="#FFFFFF" d="M115.33,95.127c0,0.103-0.156,0.3-0.469,0.591s-0.609,0.437-0.889,0.437c-1.355,0-2.033-0.342-2.033-1.027
			V83.794c0-2.473-0.543-4.403-1.631-5.795c-1.086-1.39-2.529-2.086-4.328-2.086c-1.867,0-3.338,0.73-4.406,2.19
			c-1.07,1.459-1.605,3.459-1.605,5.999v11.024c0,0.103-0.146,0.3-0.443,0.591c-0.295,0.291-0.582,0.437-0.859,0.437
			c-1.045,0-1.652-0.247-1.826-0.745c-0.174-0.495-0.26-0.642-0.26-0.436V62.762c0-0.617,0.564-0.925,1.693-0.925
			c1.096,0,1.645,0.359,1.645,1.078c0,1.919,0.172,4.231,0.514,6.937c0.445,3.356,0.959,4.982,1.541,4.88
			c0.582-0.247,1.576-0.619,2.98-1.114c1.197-0.318,2.07-0.479,2.619-0.479c2.33,0,4.205,0.765,5.627,2.292
			c1.42,1.528,2.131,3.545,2.131,6.05V95.127z"/>
		<path fill="#FFFFFF" d="M123.344,94.459c0,0.515-0.342,0.977-1.027,1.388c-0.547,0.308-1.063,0.462-1.541,0.462
			c-0.891,0-1.336-2.089-1.336-6.268V75.245c0-1.232,0.582-1.849,1.748-1.849c1.438,0,2.156,0.924,2.156,2.773V94.459z
			 M123.088,66.718c0,0.205-0.344,0.377-1.027,0.513c-0.549,0.139-0.977,0.206-1.285,0.206c-0.719,0-1.078-0.514-1.078-1.541
			c0-0.958,0.273-1.438,0.822-1.438c1.162,0,1.883,0.051,2.156,0.154C122.951,64.714,123.088,65.416,123.088,66.718z"/>
	</g>
</g>
</svg>
