<?xml version="1.0" encoding="utf-8"?>
<!-- Generator: Adobe Illustrator 16.0.0, SVG Export Plug-In . SVG Version: 6.00 Build 0)  -->
<!DOCTYPE svg PUBLIC "-//W3C//DTD SVG 1.1//EN" "http://www.w3.org/Graphics/SVG/1.1/DTD/svg11.dtd">
<svg version="1.1" id="Layer_1" xmlns="http://www.w3.org/2000/svg" xmlns:xlink="http://www.w3.org/1999/xlink" x="0px" y="0px"
	 width="69.855px" height="65px" viewBox="0 0 69.855 65" enable-background="new 0 0 69.855 65" xml:space="preserve">
<g>
	<g>
		<path fill="#FF9B59" d="M1.55,65.199h9.314c0.932,0,1.552-0.62,1.552-1.552v-9.313V13.971c0-0.466-0.156-0.776-0.311-1.087
			L7.604,1.087C7.45,0.621,6.828,0.155,6.208,0.155c-0.622,0-1.242,0.311-1.397,0.932L0.309,12.884C0.155,13.195,0,13.505,0,13.971
			v40.363v9.313C0,64.579,0.619,65.199,1.55,65.199z M9.313,52.777H7.758V15.523h1.555V52.777z M6.052,5.899l2.483,6.521h-4.81
			L6.052,5.899z M3.102,15.523h1.555v37.254H3.102V15.523z M3.102,55.884h6.211v6.208H3.102V55.884z"/>
		<rect x="13.971" fill="#FF9B59" width="55.884" height="3.104"/>
		<rect x="17.072" y="62.092" fill="#FF9B59" width="52.783" height="3.107"/>
		<path fill="#FF9B59" d="M34.149,40.206v11.021c0,0.932,0.622,1.55,1.553,1.55h24.839c0.93,0,1.551-0.618,1.551-1.55V26.391
			c0-0.932-0.621-1.553-1.551-1.553H49.519c-0.777-6.986-6.677-12.418-13.816-12.418c-7.761,0-13.973,6.208-13.973,13.971
			C21.729,33.686,27.164,39.584,34.149,40.206z M58.986,27.942v21.735h-21.73v-9.471c6.518-0.775,11.644-5.745,12.263-12.264H58.986
			z M37.256,37.102v-9.16h9.157C45.794,32.755,42.067,36.479,37.256,37.102z M35.702,15.523c5.589,0,9.936,4.036,10.711,9.314
			H35.702c-0.931,0-1.553,0.622-1.553,1.553v10.711c-5.277-0.777-9.314-5.278-9.314-10.711
			C24.835,20.336,29.647,15.523,35.702,15.523z"/>
		<rect x="40.357" y="43.465" fill="#FF9B59" width="3.106" height="3.104"/>
		<rect x="46.57" y="43.465" fill="#FF9B59" width="3.102" height="3.104"/>
		<rect x="52.778" y="43.465" fill="#FF9B59" width="3.107" height="3.104"/>
		<rect x="52.778" y="37.257" fill="#FF9B59" width="3.107" height="3.106"/>
		<rect x="52.778" y="31.048" fill="#FF9B59" width="3.107" height="3.103"/>
		<rect x="15.521" y="6.208" fill="#FF9B59" width="3.106" height="3.105"/>
		<rect x="21.729" y="6.208" fill="#FF9B59" width="3.106" height="3.105"/>
		<rect x="27.941" y="6.208" fill="#FF9B59" width="3.103" height="3.105"/>
		<rect x="34.149" y="6.208" fill="#FF9B59" width="3.106" height="3.105"/>
		<rect x="40.357" y="6.208" fill="#FF9B59" width="3.106" height="3.105"/>
		<rect x="46.57" y="6.208" fill="#FF9B59" width="3.102" height="3.105"/>
		<rect x="52.778" y="6.208" fill="#FF9B59" width="3.107" height="3.105"/>
		<rect x="58.986" y="6.208" fill="#FF9B59" width="3.105" height="3.105"/>
		<rect x="65.199" y="6.208" fill="#FF9B59" width="3.101" height="3.105"/>
		<rect x="21.729" y="55.884" fill="#FF9B59" width="3.106" height="3.107"/>
		<rect x="27.941" y="55.884" fill="#FF9B59" width="3.103" height="3.107"/>
		<rect x="34.149" y="55.884" fill="#FF9B59" width="3.106" height="3.107"/>
		<rect x="40.357" y="55.884" fill="#FF9B59" width="3.106" height="3.107"/>
		<rect x="46.57" y="55.884" fill="#FF9B59" width="3.102" height="3.107"/>
		<rect x="52.778" y="55.884" fill="#FF9B59" width="3.107" height="3.107"/>
		<rect x="58.986" y="55.884" fill="#FF9B59" width="3.105" height="3.107"/>
		<rect x="65.199" y="55.884" fill="#FF9B59" width="3.101" height="3.107"/>
		<rect x="17.072" y="41.914" fill="#FF9B59" width="9.314" height="3.104"/>
		<rect x="17.072" y="48.122" fill="#FF9B59" width="9.314" height="3.105"/>
		<rect x="58.986" y="12.419" fill="#FF9B59" width="9.313" height="3.104"/>
		<rect x="58.986" y="18.628" fill="#FF9B59" width="9.313" height="3.105"/>
	</g>
</g>
</svg>
